<?xml version="1.0" encoding="utf-8"?>
<!-- Generator: Adobe Illustrator 19.0.0, SVG Export Plug-In . SVG Version: 6.00 Build 0)  -->
<svg version="1.1" id="Layer_1" xmlns="http://www.w3.org/2000/svg" xmlns:xlink="http://www.w3.org/1999/xlink" x="0px" y="0px"
	 viewBox="0 0 35 22" enable-background="new 0 0 35 22" xml:space="preserve">
<path id="XMLID_2_" fill-rule="evenodd" clip-rule="evenodd" fill="#E84855" d="M35,14.6c0,4.1-3.4,7.4-7.5,7.4S20,18.7,20,14.6
	c0-1.7,0.6-3.3,1.6-4.5l7.8-10l1.3,1.1l-3.1,6.1C31.7,7.2,35,10.5,35,14.6z M7.5,22C3.4,22,0,18.7,0,14.6c0-1.7,0.6-3.3,1.6-4.5
	L9.4,0l1.3,1.1L7.6,7.1c4.1,0,7.5,3.3,7.5,7.4C15,18.7,11.7,22,7.5,22z"/>
</svg>
